<svg class="text-red-700" width="153" height="40" viewBox="0 0 153 40" fill="none" xmlns="http://www.w3.org/2000/svg">
<g clip-path="url(#clip0_146_68)">
<path d="M134.586 11.8018C134.586 11.086 134.011 10.5048 133.295 10.5048H131.38C130.665 10.5048 130.089 11.086 130.089 11.8018V31.8202C130.089 32.536 130.665 33.1172 131.38 33.1172H133.295C134.011 33.1172 134.586 32.536 134.586 31.8202V11.8018ZM137.027 12.3341V13.2824C137.027 13.674 137.352 13.9921 137.743 13.9921H150.952C151.552 13.9921 152.041 13.5088 152.041 12.9031V11.294C152.041 10.6884 151.546 10.1438 150.946 10.205C150.946 10.205 138.178 11.4592 137.768 11.5021C137.297 11.5632 137.027 11.9426 137.027 12.3341ZM126.333 33.1234C123.048 33.1234 120.98 30.6333 120.98 27.8557V19.8471H120.037C119.536 19.8471 119.132 19.4433 119.132 18.9416V17.6018C119.132 17.1001 119.542 16.6963 120.044 16.6963H120.98V11.7713C120.98 11.0738 121.542 10.5109 122.24 10.5109H124.106C124.803 10.5109 125.366 11.0799 125.366 11.7774V16.6963H128.278C128.78 16.6963 129.19 17.1001 129.19 17.6018V18.9416C129.19 19.4433 128.786 19.8471 128.285 19.8471H125.372V27.2561C125.372 28.7122 126.253 29.7033 127.832 29.7033H128.095C128.639 29.7033 129.08 30.1438 129.08 30.6884V32.1445C129.08 32.689 128.639 33.1295 128.095 33.1295L126.333 33.1234ZM95.5712 19.5473C97.5351 19.5473 99.2237 20.9423 99.395 22.8266H91.778C91.9432 20.9423 93.6073 19.5473 95.5712 19.5473V16.1212C90.2608 16.1212 87.2812 20.2754 87.2812 24.6559C87.2812 29.324 90.4688 33.4354 95.608 33.4354C99.1197 33.4354 102.589 31.5816 103.237 28.5409C103.323 28.131 103.048 27.5926 102.472 27.5926H99.964C99.5052 27.5926 99.132 27.8129 98.9117 28.1432C98.1959 29.1955 97.1375 29.7584 95.5835 29.7584C93.381 29.7584 91.8576 28.027 91.7474 26.1059H102.423C103.409 26.1059 103.849 25.5736 103.849 24.662C103.849 20.3916 101.322 16.1273 95.5774 16.1273L95.5712 19.5473ZM144.228 19.5473C146.186 19.5473 147.881 20.9423 148.052 22.8266H140.435C140.6 20.9423 142.264 19.5473 144.228 19.5473V16.1212C138.918 16.1212 135.938 20.2754 135.938 24.6559C135.938 29.324 139.132 33.4354 144.265 33.4354C147.777 33.4354 151.24 31.5816 151.894 28.5409C151.98 28.131 151.705 27.5926 151.13 27.5926H148.621C148.168 27.5926 147.795 27.8129 147.569 28.1432C146.853 29.1955 145.801 29.7584 144.241 29.7584C142.044 29.7584 140.515 28.027 140.398 26.1059H151.081C152.066 26.1059 152.506 25.5736 152.506 24.662C152.506 20.3916 149.979 16.1273 144.234 16.1273L144.228 19.5473Z" fill="#404040"/>
<path d="M117.388 10.7311H82.8029C82.0136 10.7311 81.3835 11.3674 81.3835 12.1567L81.4997 25.7388C81.4997 25.7388 74.0479 12.279 73.6564 11.5877C73.2893 10.9453 72.5062 10.3457 71.4233 10.3457H68.5783C67.7952 10.3457 67.1528 10.982 67.1528 11.7712V31.6917C67.1528 32.4748 67.7891 33.1172 68.5783 33.1172H70.4015C71.1908 33.1172 71.827 32.4748 71.827 31.6917L71.7108 17.7241C71.7108 17.7241 79.236 31.3246 79.5542 31.8569C79.9886 32.5788 80.7227 33.1172 81.7873 33.1172H84.3997C85.1889 33.1172 85.8252 32.4748 85.8252 31.6917V14.1022H117.395C117.933 14.1022 118.367 13.6678 118.367 13.1294V11.6917C118.361 11.1655 117.927 10.7311 117.388 10.7311Z" fill="#404040"/>
<path d="M111.79 19.3821C113.295 19.3821 114.421 19.9266 114.825 20.8688C115.021 21.3216 115.394 21.4072 115.914 21.4072H117.982C118.324 21.4072 118.716 21.1135 118.716 20.6669C118.716 18.2625 115.853 16.1151 111.79 16.1151C107.587 16.1151 104.834 18.1157 104.834 21.3032C104.834 23.7443 106.761 25.1943 109.129 25.8122C110.206 26.0937 112.053 26.5525 112.947 26.785C113.913 27.042 114.782 27.3356 114.782 28.1616C114.782 29.4708 113.405 29.9175 111.894 29.9175C110.469 29.9175 109.043 29.2812 108.639 28.2656C108.401 27.6782 107.991 27.5926 107.361 27.5926H105.262C104.895 27.5926 104.473 27.9107 104.473 28.3879V28.6571C104.473 30.982 107.593 33.4231 111.9 33.4231C114.953 33.4231 119.205 32.1567 119.205 28.0576C119.205 25.6838 117.621 24.0441 115.039 23.3895C114.029 23.1325 111.601 22.5146 111.074 22.38C110.132 22.1353 109.257 21.8294 109.257 21.0279C109.251 19.7982 110.383 19.3821 111.79 19.3821ZM35.2225 6.13037C35.6079 6.13037 35.9138 5.81835 35.9138 5.43903C35.9138 5.05359 35.6018 4.74769 35.2225 4.74769C34.8431 4.74769 34.5311 5.05971 34.5311 5.43903C34.5311 5.81835 34.8431 6.13037 35.2225 6.13037ZM25.9169 4.90064C26.2411 4.90064 26.4981 4.63756 26.4981 4.31942C26.4981 3.99516 26.235 3.7382 25.9169 3.7382C25.5926 3.7382 25.3357 4.00128 25.3357 4.31942C25.3295 4.63756 25.5926 4.90064 25.9169 4.90064ZM18.9361 19.1619L18.6547 18.856C19.4439 18.1218 20.2821 16.9471 20.4228 16.2619C20.5513 15.6195 21.469 15.7235 21.2916 16.421C21.0652 17.3142 19.9762 18.3849 18.9361 19.1619ZM13.0322 5.14536C11.5761 5.77552 11.362 7.27445 12.3837 8.16769C13.6134 9.25059 15.6507 8.30841 15.455 6.65653C17.1068 6.74218 18.1714 5.02912 17.9083 3.83609C18.6425 3.20593 18.7159 1.85995 17.8349 1.3338C16.8927 0.764818 15.9995 0.985069 15.4305 2.07409C13.9132 1.95784 12.4632 3.15087 13.0322 5.14536L12.3286 4.83946C11.4048 2.90615 13.02 0.930006 15.0083 1.38274C15.406 0.422206 16.8866 -0.575041 18.4834 0.391615C19.7621 1.16249 20.0313 3.15699 18.6731 4.12364C19.3093 5.98354 18.0368 7.50082 16.0974 7.32952C15.871 9.72169 13.6134 10.0276 12.1573 8.89574C11.3314 8.25335 10.9949 7.36623 10.8419 6.69324C10.6767 5.98354 10.6767 5.34726 9.97316 4.61921C9.447 4.06858 8.50482 4.08694 8.50482 4.08694C8.50482 2.3494 6.87741 0.7587 4.85844 1.52958C4.14263 0.911652 3.26162 0.850471 2.62534 1.61523C2.25826 2.05573 2.05636 3.21817 3.18821 3.75044C3.12703 5.33502 4.33841 6.34451 6.10041 6.20379C6.16771 7.04809 7.10378 7.82508 7.92972 7.94132L7.9236 8.36347C7.0426 8.27782 6.56539 8.58984 5.97805 9.31789C3.90402 9.22 2.44792 10.1438 2.5091 11.6305C1.053 11.9058 0.777684 13.4354 1.60362 14.2491C2.42957 15.0628 3.64095 14.7446 4.05697 13.7719C5.53143 14.0533 6.82846 12.9949 6.88964 11.7835C8.26009 11.7835 8.86578 11.239 9.09215 9.97865L9.61219 10.0215C9.76514 11.3797 9.13498 12.6706 7.49533 12.5176C7.45251 14.1451 5.87404 15.0505 4.4057 14.4938C3.72048 15.7786 2.14813 16.2986 0.826629 15.0383C-0.445932 13.8208 0.0190422 11.7407 1.68316 11.239C1.71987 9.64827 2.90066 8.13099 5.1827 8.71832C5.1827 8.71832 5.47637 8.00862 6.19218 7.9658C5.71497 7.77002 5.35401 7.50694 5.25612 7.01749C3.53082 7.38458 2.0686 5.8 2.46016 4.20318C0.900046 3.37112 0.875573 1.82936 1.64645 0.91777C2.44792 -0.0366505 3.78778 -0.244665 4.98692 0.783172C7.01812 -0.342554 9.3124 1.03401 9.17169 3.34665C10.5911 3.25488 11.4537 4.49073 11.2947 5.78776C11.5271 5.21878 11.8025 4.9557 12.3286 4.83946L13.0322 5.14536Z" fill="#404040"/>
<path d="M16.5135 2.36774L16.8561 2.61246C16.1892 4.0135 15.0145 5.50631 14.0051 6.32613L13.6196 6.03858C14.3354 4.88227 15.8711 2.96119 16.5135 2.36774ZM6.58995 10.0826L6.82244 10.4252C5.97814 11.2879 4.42415 12.4381 3.59821 12.8358L3.27395 12.487C4.07542 11.6244 5.59882 10.4987 6.58995 10.0826ZM8.59668 5.9101L8.19288 6.41179C7.09163 5.68985 4.91971 3.75042 4.43027 3.04684L4.77288 2.69811C5.82519 3.2365 7.87475 5.06581 8.59668 5.9101ZM6.55936 24.3255C6.68784 24.9557 6.57771 25.6531 7.14669 26.3323C7.34859 26.5709 8.44984 28.0208 9.2452 28.7734C8.1623 29.2016 5.99038 30.0826 4.42415 30.2784C4.11213 30.3151 3.75728 30.5354 3.46361 30.7067C3.26783 31.0432 3.06593 31.6366 2.98028 32.3096C2.9191 32.7929 2.92522 33.3313 2.92522 33.8758C2.92522 34.3592 3.18218 35.8765 3.72057 36.8921C4.25896 37.9077 4.779 38.3665 5.41528 38.6602C5.54376 38.6051 5.81907 38.5623 6.25345 38.5562C7.43424 38.5317 8.35807 39.1802 8.76187 39.7431C8.91482 39.9572 9.23296 40 9.64287 40C10.5973 40 11.6435 39.688 12.6346 39.3087C12.8487 39.1313 13.4483 38.7336 14.0357 38.2747C14.623 37.8098 17.9023 35.0322 19.3523 34.3286C20.117 34.7446 21.3712 35.2769 22.6683 35.2769C22.7417 35.2769 22.9925 35.2769 23.2556 35.2218C23.6594 35.1301 24.1794 34.9465 24.8341 34.8241C26.0026 34.5978 27.3731 34.3959 27.7769 34.402C28.8536 34.4203 32.0044 34.4999 32.7509 34.4999C33.534 34.4999 34.6536 34.4326 35.0818 34.3898C35.7426 34.1756 37.2109 33.7657 38.6181 33.1172C40.0252 32.4932 42.9803 30.4375 43.4636 29.9725C43.6961 29.7584 43.9041 29.532 44.0632 29.324C44.1244 29.2445 44.1427 29.2139 44.1427 29.1527C44.1427 29.0915 44.1305 27.0787 44.1305 27.0787C44.1305 27.0787 44.8402 26.2894 45.1094 26.0202C45.1338 25.9958 45.14 25.959 45.1338 25.9346C45.0115 25.5308 44.8891 24.2827 44.9625 23.0101L44.2467 22.6736C44.2223 24.2521 43.641 25.5981 43.1026 26.4301C42.0381 26.5953 40.0069 27.2255 39.2727 28.0637L39.6765 28.1799C40.3617 27.8006 41.102 27.5375 41.9402 27.5375C42.6805 27.5375 43.0109 27.7333 43.0109 27.9413C43.0109 28.0881 42.8702 28.443 42.8151 28.5531C42.7478 28.6816 42.7111 28.8407 42.5826 28.9753C41.5792 30.0643 40.4474 30.9942 39.0586 31.7651C38.1286 32.2851 37.2476 32.64 35.865 33.0254C35.455 33.1417 34.8861 33.3069 34.519 33.4353C33.9989 33.4231 31.2886 33.3436 29.7041 33.3436C28.1195 33.3436 24.8585 33.5761 23.8185 33.8391C23.3474 33.9615 23.2311 34.145 22.6805 34.145C21.6588 34.145 20.3128 33.625 19.493 33.2273C19.3706 33.264 19.0769 33.3925 18.7772 33.5455C18.1959 33.833 16.8928 35.6378 16.1342 35.0933C15.7487 35.8826 14.0785 36.6351 13.5095 37.4549C13.5768 37.0267 14.2437 34.2368 14.311 33.6801C14.3232 33.5822 14.3293 33.5026 14.2681 33.3986C13.6563 32.383 11.9616 31.7345 11.0011 31.5449C10.7197 31.4898 10.5789 31.4531 10.3893 31.4103L8.87811 30.9514L7.47707 31.4103L9.09836 31.7223L7.04269 33.0805C7.39753 32.9459 9.61228 32.328 9.77747 32.279C9.96101 32.224 10.1996 32.175 10.4627 32.2668C10.7625 32.3708 11.619 32.5666 12.1268 32.744C12.4266 32.848 12.916 33.3986 13.0445 33.6923C13.0935 33.8147 13.1179 34.0716 13.1485 34.6345C13.1669 34.9893 13.0751 35.491 12.9895 35.8765C12.7631 36.8859 12.3042 37.6752 12.1574 37.9566C11.9555 38.3482 11.6802 38.4705 11.4049 38.599C10.9583 38.8131 10.4076 38.9416 9.80194 38.9477C9.38591 38.9538 9.10448 38.9294 8.92705 38.6908C8.36419 37.9321 6.98151 37.198 5.56211 37.4733C4.69334 36.9471 3.83069 35.2524 3.83069 33.9003C3.83069 33.0927 4.24061 31.8141 4.46086 31.1717C5.87413 30.982 8.70069 29.9052 10.0773 29.2812C10.3648 29.2689 11.154 28.9875 11.9127 28.9875C13.7603 28.9875 15.6019 30.6088 16.7154 31.6978C16.8989 31.398 17.2415 30.9392 18.1837 30.9392C19.493 30.9392 20.2455 32.1322 20.6187 33.3558L21.3039 32.8602C21.1816 32.1567 20.8206 31.3919 20.2639 30.8413C19.8111 30.3885 18.9485 30.0153 18.2755 30.0153C17.8717 30.0153 17.4495 30.1071 17.1803 30.1071C16.2443 30.1071 15.865 29.6911 15.1736 29.2139C14.4272 28.6999 13.0384 27.9535 12.0473 27.9535C11.411 27.9535 11.1234 28.2044 10.5973 28.2044C9.82029 28.2044 9.53886 27.8862 9.16566 27.4213C9.00659 27.2194 8.21736 26.528 8.00934 26.2466C7.88698 26.0875 7.67285 25.4268 7.59943 25.1025L6.55936 24.3255Z" fill="#404040"/>
<path d="M7.62379 25.0842C7.85016 25.3228 8.0643 25.592 8.34573 25.8061C8.62104 26.0141 8.95754 26.1915 9.28179 26.3751C9.73453 26.632 10.2546 26.9257 10.7624 27.0909C11.209 27.2255 11.7902 27.2806 12.3347 27.2806C13.1117 27.2806 14.0294 27.1215 14.7881 27.4763C15.2959 27.7149 15.3326 28.2533 15.7364 28.4063C16.3665 28.651 18.1163 28.7061 19.0891 28.7061C21.0102 28.7061 23.0964 28.4614 24.3261 28.1677L23.7266 27.5069C22.8762 27.6476 20.38 27.9168 19.2359 27.9168C17.6207 27.9168 16.0973 27.6599 16.0973 26.993C16.0973 26.528 16.5929 25.8612 17.5412 25.8612C18.5568 25.8612 20.0924 26.473 20.38 26.5586C20.6614 26.6443 20.7777 26.6198 20.9551 26.5403L21.5485 26.2344C20.7593 25.8673 18.0123 24.919 17.0579 24.919C16.6051 24.919 16.3604 24.9863 16.0667 25.3656C15.6997 25.8367 14.7146 26.2711 13.1545 26.2711C12.298 26.2711 11.0683 26.1181 10.7991 26.008C10.328 25.8122 9.40416 25.28 8.8107 24.8517C8.05206 24.3011 7.38519 23.6954 6.93245 22.9796C6.79174 22.7593 6.73055 22.5146 6.73055 22.2943C6.73055 22.1108 6.78562 21.9395 6.80397 21.7988C6.93857 21.9884 7.0854 22.123 7.27506 22.3004C8.101 23.108 9.32462 23.7076 10.5788 23.9523C10.9337 24.0196 11.2518 24.0747 11.6067 24.0747C12.1451 24.0747 12.6345 23.7871 12.9526 23.5057L12.4571 22.9306C12.298 22.9796 11.9676 22.9796 11.7535 22.9796C9.93031 22.9796 7.61768 21.7865 7.0854 20.41C7.03034 20.2754 6.96916 20.2019 7.02422 20.0735C7.07929 19.9511 7.14047 19.6819 7.18329 19.4311C7.2873 19.5534 7.51367 19.737 7.78898 19.9205C8.46809 20.3549 9.759 20.9545 10.0098 21.1135C10.6584 20.9239 11.1478 20.7097 11.5394 20.5079C11.9187 20.3121 12.4387 20.1346 13.0383 20.1346C14.372 20.1346 15.9016 20.8933 17.3332 21.603L18.3182 21.2175C17.0395 20.3182 14.268 19.064 12.7263 19.064C11.8147 19.064 10.9581 19.7309 10.3525 19.7309C9.60605 19.7309 7.46472 18.6847 7.46472 17.8159C7.46472 17.149 8.84741 16.7636 11.0805 16.4944C10.6951 17.0695 10.328 17.6568 9.98537 18.2564L10.5544 18.5745C14.0478 13.5149 17.6758 10.2356 20.7348 8.23498C21.8422 7.50693 22.0992 7.08479 22.4846 6.28944C23.4329 4.35612 24.3261 2.86943 25.8801 2.86943C26.6021 2.86943 27.1955 3.27934 27.6054 3.78102L28.7312 4.11752L27.5932 4.8884L28.7556 5.35337C27.2384 5.77552 25.1643 7.25609 24.3261 9.42189C22.711 9.50754 21.9279 10.8168 21.4017 11.912C21.0469 12.6522 20.4779 12.9459 19.6519 13.5088L13.0383 18.1218L13.9499 18.2503L20.0618 14.1573C21.2671 13.3436 21.8422 12.744 22.1298 12.1689C22.6987 11.0371 23.3044 10.1928 24.5036 10.1928C25.0909 10.1928 25.7211 10.4436 26.2289 10.9208L27.2995 11.2696L26.131 11.9854L27.1099 12.5911C24.3078 13.4659 22.5703 15.4788 21.5608 19.3148L22.3011 19.48C22.6743 18.2075 23.0414 17.045 23.696 16.0111C25.3173 15.9927 26.963 15.9315 28.5782 15.9315C32.8853 15.9315 36.4583 16.1151 38.3916 16.6841L37.7064 15.4971C35.6446 15.1484 32.6467 14.9649 28.5782 14.9649C27.2139 14.9649 25.8312 15.0138 24.4607 15.0322C25.3479 14.0961 26.6204 13.3069 28.5843 12.6951L27.1894 11.9303L28.7373 11.0738L26.6021 10.2784C26.235 9.94805 25.7761 9.64214 25.1949 9.49531C25.8679 7.42128 28.1744 6.2099 30.3769 5.37172L28.8352 4.74156L30.3953 3.89115L27.997 3.12639C27.3668 2.39222 26.7673 2.05573 25.8434 2.05573C23.6165 2.05573 22.6865 3.98904 21.7994 5.7021C21.3344 6.60146 21.0407 6.9869 20.2515 7.50081C18.5384 8.62042 16.3604 10.3335 14.2741 12.5238C13.1851 11.7406 10.9643 9.44636 10.3586 8.19216C10.12 8.48583 9.88748 9.12822 9.88748 9.12822C10.1139 9.36683 12.7324 12.016 13.7052 13.1356C13.6317 13.2151 13.5583 13.3008 13.4849 13.3803C12.4448 13.5883 9.75289 13.8453 8.83517 13.7229L8.32126 14.6406C9.00648 14.5733 11.6862 14.2552 12.7936 14.194C12.451 14.6039 12.1206 15.0261 11.8024 15.4543C8.35796 15.8459 6.05757 16.5495 6.05757 17.822C6.05757 18.03 6.14322 18.2686 6.14322 18.495C6.14322 19.0273 5.94132 19.2231 5.56812 19.4617C5.3234 19.6146 5.30504 19.7247 5.40905 19.8716C5.51306 20.0184 6.04533 20.8076 6.04533 20.9606C6.04533 21.2175 5.78837 21.4684 5.58647 21.7009C5.40905 21.9028 5.41517 21.9517 5.55588 22.2026L6.55313 24.3255L7.62379 25.0842ZM50.2607 13.2702C50.0404 13.5026 49.8447 13.7474 49.6856 14.0105L49.1288 13.2335C50.9826 10.7618 55.8771 9.60543 58.7403 9.40354V8.08203C58.3794 8.19216 57.9817 8.32064 57.6207 8.40629C57.1068 8.52865 56.6296 8.6449 56.2319 8.63266C55.8281 8.62654 55.5039 8.46135 55.357 8.24722C54.9716 7.69659 55.3265 6.86453 56.5868 6.08754L55.5956 5.2616C54.8248 6.25885 54.0723 7.35398 53.3014 8.00862C52.6039 8.60207 51.8697 8.90186 51.2824 8.46135C50.9643 8.22275 50.8419 8.11262 50.8113 7.4947C50.8541 6.5831 51.4048 5.18818 51.8942 4.29494L50.7195 4.16034C50.5054 5.53691 49.9487 6.70546 49.343 7.67212C48.5905 8.87738 47.6238 9.72168 46.6265 10.413L45.9719 9.77062C46.7734 9.29341 47.7829 8.52253 48.4742 7.45799C49.2757 6.22214 49.9303 4.69262 49.9303 3.30381L53.3381 3.62807C52.8609 4.23988 52.0716 5.62256 51.7719 6.61981C51.6189 7.13985 51.625 7.54976 51.8147 7.69048C52.1756 7.95967 52.8058 7.53141 53.4237 6.87065C54.2864 5.94071 55.1368 4.53966 55.51 4.03798L57.9695 6.08142C56.8743 6.66264 55.8159 7.32339 56.0239 7.69659C56.2197 8.03921 56.9172 7.9352 57.688 7.69659C58.3182 7.50082 58.9851 7.21327 59.5173 6.90124V10.2295C58.3304 10.2111 56.3176 10.4375 54.3843 11.0187C54.8431 11.6672 56.1646 11.9058 57.0089 12.0221L56.5868 14.7263C54.4638 13.8391 52.8303 13.3191 50.2607 13.2702L51.1111 12.5421C53.0016 12.5788 54.8982 13.1294 55.975 13.674L56.1279 12.6522C55.1613 12.5238 53.9377 11.9731 53.4237 11.3491C52.5794 11.6672 51.7841 12.0588 51.1111 12.5421L50.2607 13.2702Z" fill="#404040"/>
<path d="M40.1109 21.8539L40.9001 20.153C40.0742 19.1741 39.1442 17.9383 38.3611 16.678L37.6759 15.4911C36.0974 12.4932 36.6725 11.0677 35.8282 9.74617C35.1308 8.65716 31.7536 9.33626 31.1968 9.45251L32.1757 7.83122L30.2485 7.98417L31.8821 6.04474C32.0595 5.7939 32.1451 5.56141 32.3348 4.88842C32.6224 3.8667 33.5034 2.12305 36.073 2.12305C38.9301 2.12305 39.8111 4.43568 41.0592 5.43905C42.4725 6.57701 44.3262 8.17383 45.972 9.77065L46.6266 10.413C47.4709 11.2757 48.3336 12.1628 49.1289 13.2335L49.6857 14.0105C53.124 19.0273 57.3883 28.6143 59.2788 33.0071C59.4624 33.4354 59.5909 33.8636 59.7071 34.194C58.4223 33.4843 57.009 32.6094 55.559 31.6061L54.7086 31.0126C54.1764 30.6272 53.6502 30.2356 53.1302 29.8379L52.2614 29.1527C51.7352 28.7306 51.2213 28.3023 50.7135 27.8679L52.4327 37.871C52.5612 38.4583 53.0629 38.3604 53.4667 37.8465C53.8766 37.3265 54.0295 37.1858 53.8766 36.5005L52.2614 29.1527L53.1302 29.8379L54.678 36.0845C54.8249 36.6474 55.0635 36.8248 55.7242 36.8554C56.385 36.886 56.5257 36.629 56.385 36.1946L54.7086 31.0126L55.559 31.6061L57.1436 36.2619C57.5535 37.455 57.1436 37.5957 56.4278 37.5957C55.712 37.5957 55.0696 37.4305 54.678 37.6813C54.2865 37.9322 53.797 38.6235 53.2036 39.2231C52.6835 39.7554 51.9249 39.6146 51.7781 38.6174L49.8815 27.1276C48.6456 26.0141 47.4648 24.8456 46.4125 23.6526C45.9475 23.4568 45.4275 23.2182 44.9686 23.0041L44.2528 22.6676C44.002 22.5513 43.8123 22.4657 43.7389 22.4473C43.2128 23.0775 42.7111 23.781 42.1237 24.2888C41.8117 24.558 41.5976 24.711 41.1326 24.711C40.9919 24.711 40.8145 24.711 40.6493 24.6192C40.4719 24.5213 40.3067 24.3194 40.1231 24.0441C39.9824 23.83 39.7744 23.5547 39.597 23.2549C39.2238 22.6247 38.8139 21.8355 38.4529 21.1931C38.043 20.4773 37.6942 19.9389 37.6453 19.8471C37.5719 19.7125 37.37 19.5412 37.37 19.5412C37.1681 19.8655 37.0213 20.4956 37.0213 20.8444L36.3054 20.6058C36.3972 20.1347 36.5869 19.5229 36.697 19.2292C36.697 18.9784 36.4156 18.6419 36.1831 18.6419C35.8588 18.6419 35.5223 18.9967 35.351 19.6819L34.6291 20.0001C34.7147 18.8988 35.0941 17.6874 36.1831 17.6874C37.0641 17.6874 37.6086 18.3604 38.0307 18.9906C38.4407 19.6085 39.8172 21.4868 40.1109 21.8539L40.6554 22.5452C40.7472 22.9735 40.9368 23.2243 41.0225 23.365C41.2121 23.6587 41.4202 23.6403 41.7077 23.3773C41.8362 23.261 42.2522 22.9184 42.656 22.4963C43.0047 22.1292 43.3474 21.6887 43.482 21.4623C43.8857 21.6397 44.626 22.0007 45.2317 22.2638C42.6499 19.0824 40.1843 15.228 39.1075 12.6033C38.667 11.5204 39.5297 11.1533 39.9518 12.224C41.0898 15.124 44.4058 20.2509 46.8469 22.9429C49.6673 26.0509 54.831 30.5538 58.1959 32.3586C57.7065 31.4042 57.0641 30.0398 56.3238 28.4553C52.2369 26.1487 48.1011 21.9028 46.1739 18.2564L47.0243 18.3543C48.8169 21.5235 53.0996 25.7572 55.6325 26.9869C53.3198 22.0741 50.3097 15.852 47.9543 13.1784C45.0359 9.8563 41.8545 7.29282 40.3373 5.95296C38.8383 4.63758 38.2204 2.97958 36.0668 2.97958C34.2865 2.97958 33.3504 4.26437 32.9956 5.55529C32.9221 5.80613 32.8793 5.9652 32.7019 6.22828L31.8576 7.23776L33.6747 7.01751L32.6224 8.49197C32.6224 8.49197 35.4734 7.84957 36.4706 9.20778C37.5474 10.67 36.85 12.3096 38.612 15.4911C39.389 16.8921 41.2611 19.4066 41.8913 19.9695L40.6615 22.5513L40.1109 21.8539ZM12.1084 22.2944L11.6802 22.0007C11.9188 21.7988 12.396 21.4868 12.8671 21.2849C13.1118 21.1809 13.3871 21.1319 13.589 21.1319C14.0723 21.1319 14.4884 21.3338 14.8922 21.5479C15.5346 21.8906 16.2565 22.2944 16.8071 22.2944C17.0213 22.2944 17.2232 22.2454 17.4556 22.2454C18.0002 22.2454 18.5263 22.4901 18.8261 22.4901C19.0096 22.4901 19.132 22.3249 19.2544 22.1536C19.5541 21.7193 19.9702 21.395 20.5024 21.1747C21.0714 20.9361 21.7628 20.8383 22.5092 20.8383C23.0965 20.8383 23.6594 20.9239 23.953 20.9851C23.953 20.9851 23.5064 21.5235 23.3902 21.6458C22.7967 21.6458 21.6649 21.6275 20.9368 21.9212C20.4902 22.1047 20.3311 22.3617 20.3311 22.7349C20.3311 23.2732 20.9307 23.4813 21.5976 23.6832C21.9891 23.8055 22.4296 23.83 22.8028 23.83C23.2617 23.83 24.1366 23.6587 25.0054 23.469C26.0515 23.2365 27.0243 22.9673 27.3057 22.8572L27.6851 23.5363C26.5226 23.934 25.3296 24.3072 24.2222 24.5275C23.5982 24.6559 23.0047 24.7355 22.4725 24.7355C21.5853 24.7355 20.6248 24.3623 19.8295 23.9829C19.1626 23.6648 18.563 23.3467 18.0369 23.3467C17.4373 23.3467 16.8744 23.5547 16.3177 23.8728C16.0485 24.0258 15.2287 24.5886 14.5006 24.8762C13.9439 25.0964 13.485 25.2188 12.916 25.2188C12.4143 25.2188 12.1084 25.1454 11.8454 24.9435L12.7264 24.4051C12.8365 24.5152 13.0384 24.5397 13.1669 24.5397C13.2953 24.5397 13.4483 24.5275 13.7909 24.3806C13.9867 24.3011 14.2742 24.1237 14.4394 24.0135C14.7882 23.7933 14.9044 23.6587 15.039 23.5486C15.3082 23.3405 15.4 23.0591 15.0635 22.7593C14.9044 22.6186 14.7392 22.4718 14.5251 22.3433C14.2253 22.1598 14.005 21.9823 13.4544 21.9823C12.812 21.9884 12.3593 22.1659 12.1084 22.2944Z" fill="#404040"/>
<path d="M24.3383 22.643C24.3383 22.643 23.8183 22.5023 23.6347 22.484C23.9896 22.0006 24.4484 21.603 24.8094 21.3582C25.5191 20.8749 26.2655 20.6118 27.3973 20.5445C27.7032 20.5262 28.3334 20.465 28.676 20.4834C28.9942 20.4956 29.5264 20.5201 30.0159 20.6118C30.3646 20.6791 30.6889 20.7709 30.9519 20.8137C31.1171 20.8382 31.6861 20.8321 31.8819 20.8015C32.6834 20.673 33.6439 20.3671 34.1456 20.0918L34.3597 20.8566C33.2829 21.4072 32.0593 21.9395 30.9458 21.9395C30.3768 21.9395 29.7711 21.8966 29.2083 21.8416C28.2172 21.7498 27.3545 21.6152 27.0608 21.6152C26.2655 21.6152 25.1092 21.9884 24.3383 22.643ZM23.5429 26.9135L22.5273 26.4485C23.9345 25.7388 26.0881 25.023 26.9691 24.8823C27.8501 24.7415 28.8596 24.6375 29.4408 24.4418C29.71 25.1147 30.23 25.8367 30.9886 25.8367C31.264 25.8367 31.7167 25.6287 32.1756 25.4268C32.6895 25.2004 33.2034 24.9557 33.4665 24.8333C33.754 24.7048 34.6901 24.2949 35.4793 23.9401C35.7852 23.8055 36.6173 23.4078 36.6601 23.3833L37.1924 23.6709C37.0333 24.3745 36.7702 25.231 36.4704 25.8489C36.3542 26.0875 36.238 26.2894 36.1095 26.4301C35.877 26.6932 35.5038 27.0358 35.0143 27.3845C34.4821 27.7639 33.8336 28.1493 33.1422 28.547C32.6038 28.8529 32.0654 29.171 31.5209 29.4219L31.2395 28.9079C32.0838 28.4307 32.9403 27.825 33.6928 27.2683C34.0477 27.0052 34.3964 26.736 34.6411 26.5097C34.8247 26.3445 34.9409 26.2038 35.0327 26.0692C35.2591 25.7388 35.62 25.0964 35.7363 24.7905C35.4243 24.9434 34.2312 25.5063 33.699 25.7877C33.0994 26.1059 32.1205 26.6014 31.576 26.8584C31.1477 27.0603 30.7623 27.1704 30.487 27.1704C29.8752 27.1704 29.5998 26.7299 29.4469 26.4668C29.0615 25.7816 28.6454 25.7143 27.5625 25.7021C26.3022 25.6776 24.5708 26.2038 23.5429 26.9135ZM29.4652 23.7504C29.4652 23.7504 29.3184 23.1508 29.245 22.9306C29.245 22.9306 29.4224 22.8755 29.6549 22.8755C30.0342 22.8755 30.9642 22.9795 31.3557 22.9795C32.818 22.9795 33.3563 22.5207 33.7846 22.1352C34.1517 21.8049 34.5249 21.5357 35.516 21.5357C36.3909 21.5357 37.3943 21.8905 37.6818 22.0312L37.6206 22.8266C37.1924 22.588 36.605 22.4289 36.085 22.4289C35.724 22.4289 35.3998 22.4595 35.1673 22.5757C34.9103 22.7103 34.7513 22.9122 34.5127 23.108C34.2557 23.3221 33.9009 23.524 33.442 23.6953C32.9831 23.8667 32.408 23.9829 31.5576 23.9829C30.4258 23.9768 29.814 23.7932 29.4652 23.7504Z" fill="#404040"/>
<path d="M20.2209 29.7645L20.8939 29.4831C21.5119 29.7217 22.4051 29.9909 23.023 29.9909C23.3962 29.9909 23.7021 29.8563 23.9591 29.7461C24.1549 29.6605 26.4002 28.5592 27.5137 28.1554C27.8685 28.027 28.2234 27.9535 28.4008 27.9535C28.67 27.9535 28.6823 28.0759 28.7557 28.1921C28.9637 28.5286 30.6217 30.8902 30.7869 31.0738C32.194 30.6394 33.6318 30.0092 34.4577 29.2139C35.3204 28.3818 36.0362 27.4151 36.7336 26.6687C37.0028 26.3812 37.3332 26.1181 37.4984 26.0325C38.2142 25.6531 40.4473 25.6164 41.3895 25.6593L40.8328 26.4485C39.1809 26.4485 38.257 26.6198 37.841 26.9318C37.6636 27.0664 37.4005 27.3295 37.1436 27.6599C36.5807 28.394 35.9628 29.4035 35.718 29.5993C36.2014 29.9358 36.7275 30.2295 37.5718 30.2295C38.9729 30.2295 39.9762 29.3546 40.5269 28.859L40.9979 29.1404C40.6492 29.5932 40.2515 30.0582 39.7437 30.4008C39.1809 30.7801 38.4712 31.0309 38.049 31.1472C37.2353 30.9942 35.4488 30.6333 35.0267 30.5476C33.4788 31.1778 30.9582 32.1995 30.1078 32.4564C29.9854 32.4932 29.7896 32.5237 29.5388 32.5482C28.8658 32.5849 27.9358 32.5788 27.0915 32.5666C26.492 32.5605 25.9169 32.5666 25.6354 32.5115L24.889 31.7284C25.5437 31.8569 25.8068 31.8936 26.4186 31.8936C27.8747 31.8936 28.8168 31.6489 29.1228 31.5693C29.3797 31.502 29.4225 31.3491 29.3491 31.1166C29.2268 30.7434 29.0126 30.3885 28.6823 30.0092C28.5048 29.8012 28.1133 29.4525 27.9481 29.3423C27.7462 29.2077 27.5504 29.171 26.9998 29.3607C26.492 29.532 24.9074 30.3885 24.2222 30.7495C23.8857 30.9269 23.6226 30.982 23.0169 30.8413C22.3684 30.7006 20.8389 30.1438 20.2209 29.7645ZM24.6076 12.2117C24.9258 12.2117 25.1827 11.9548 25.1827 11.6366C25.1827 11.3185 24.9258 11.0615 24.6076 11.0615C24.2895 11.0615 24.0325 11.3185 24.0325 11.6366C24.0325 11.9548 24.2895 12.2117 24.6076 12.2117Z" fill="#404040"/>
</g>
<defs>
<clipPath id="clip0_146_68">
<rect width="152.407" height="40" fill="white" transform="translate(0.0925293 6.10352e-05)"/>
</clipPath>
</defs>
</svg>
