<svg width="161" height="24" viewBox="0 0 161 24" fill="none" xmlns="http://www.w3.org/2000/svg">
<path fill-rule="evenodd" clip-rule="evenodd" d="M11.2942 0.500061C18.2699 0.500061 22.9204 3.03862 22.9204 7.24112C22.9204 9.22503 21.3845 11.1663 19.0592 12.5743C20.8938 15.8595 22.8777 18.8033 25.6083 22.3445H23.859C18.0139 22.3445 14.8781 20.062 12.1902 14.5582C11.9982 14.5795 11.7849 14.5795 11.5929 14.5795C11.4009 14.5795 11.2089 14.5795 11.0169 14.5582V19.55L14.2594 22.3659H0.5L3.59321 19.55V3.52927L0.5 0.500061H11.2942ZM10.9956 12.3183H11.1662C14.2168 12.3183 15.2407 10.5904 15.2407 7.60377C15.2407 4.12658 14.0674 2.59064 10.9956 2.20666V12.3183ZM140.014 19.3804C139.46 19.3804 139.118 19.0818 139.118 18.5271V11.7221C139.118 6.43157 135.534 4.63964 130.607 4.63964C125.914 4.63964 122.159 6.75156 122.159 9.22612C122.159 10.7621 123.375 11.4234 124.847 11.4234C126.66 11.4234 128.004 10.8048 128.857 9.90876C128.132 9.22612 127.769 8.37282 127.769 7.71152C127.769 6.79422 128.26 6.17558 129.241 6.17558C130.991 6.17558 132.548 7.98884 132.548 10.6128V11.0394C124.634 12.2554 121.647 15.4339 121.647 18.5271C121.647 21.2577 123.674 22.8576 126.212 22.8576C128.452 22.8576 130.905 21.6203 132.292 18.7191H132.399V19.1031C132.399 21.9616 134.105 22.8363 136.004 22.8363C138.436 22.8363 140.825 21.3003 141.977 18.8684C141.38 19.1457 140.761 19.3804 140.014 19.3804ZM132.591 14.9433C132.591 17.3112 131.567 18.2285 130.265 18.2285C129.156 18.2285 128.239 17.1405 128.239 15.6686C128.239 14.3246 129.135 13.4713 130.415 13.4713C131.332 13.4713 132.121 13.77 132.612 14.09V14.9433H132.591ZM113.882 5.08756C115.162 5.68487 115.887 6.6235 115.887 8.2021C115.887 9.65271 115.418 11.3807 114.565 13.1299L113.391 15.5192L112.303 13.4926C111.343 11.7433 110.362 9.88736 110.362 8.2021C110.362 6.66616 111.087 5.7062 112.239 5.08756H99.8666C100.76 5.82309 101.739 7.65126 102.545 9.15576C102.721 9.48392 102.888 9.79669 103.045 10.0794L110.597 23.3695L118.02 10.378C119.108 8.47942 120.41 6.43151 121.967 5.08756H113.882ZM32.008 14.6649L41.6929 11.3157C41.5009 7.60386 38.4717 4.68131 33.8213 4.68131C29.3628 4.68131 25.2883 8.41449 25.2883 13.8116C25.2883 19.6781 30.1734 22.9633 34.5466 22.9633C38.1944 22.9633 41.9063 20.702 42.5249 16.0729C41.437 17.0328 39.7944 17.6515 37.9598 17.6515C35.4639 17.6301 33.3946 16.3715 32.008 14.6649ZM32.0933 7.58252C33.288 7.58252 34.8026 8.73448 35.6132 11.0384L31.112 13.257C30.5787 12.233 30.2801 11.1238 30.2801 10.0784C30.2801 8.41449 31.0694 7.58252 32.0933 7.58252ZM52.9138 6.70889C51.5485 6.70889 50.7379 7.26354 50.7379 8.2235C50.7379 9.5089 52.3974 10.0918 54.3575 10.7803C57.1791 11.7713 60.6236 12.9811 60.6362 16.8205C60.6362 20.4897 57.9056 22.8149 52.2952 22.9216C50.0553 22.9643 47.0687 22.6656 45.3621 21.7483L44.2742 16.0952C47.3247 19.5937 50.1193 20.6817 52.0178 20.6817C53.3831 20.6817 54.1938 20.127 54.1938 19.0391C54.1938 17.8274 52.571 17.2264 50.6614 16.5193C47.9315 15.5084 44.6155 14.2804 44.6155 10.7408C44.6155 7.19954 47.922 4.63964 52.8498 4.63964C55.4097 4.63964 57.3723 5.13029 58.7162 5.62094L59.4415 11.0181C57.223 7.62619 54.5777 6.70889 52.9138 6.70889ZM69.3398 14.6649L79.0247 11.3157C78.8327 7.60386 75.8035 4.68131 71.153 4.68131C66.6946 4.68131 62.6201 8.41449 62.6201 13.8116C62.6201 19.6781 67.5052 22.9633 71.8783 22.9633C75.5262 22.9633 79.238 20.702 79.8567 16.0729C78.7687 17.0328 77.1261 17.6515 75.2915 17.6515C72.7956 17.6301 70.7264 16.3715 69.3398 14.6649ZM69.4251 7.58252C70.6197 7.58252 72.1343 8.73448 72.945 11.0384L68.4438 13.257C67.9105 12.233 67.6119 11.1238 67.6119 10.0784C67.6119 8.41449 68.4012 7.58252 69.4251 7.58252ZM90.1177 4.89381C96.9867 4.89381 99.4186 6.55774 99.4186 9.58695C99.4186 11.4429 98.0107 12.5949 96.0268 13.2562L101.659 22.3651H99.9093C95.0668 22.3651 92.9976 21.0212 90.1603 15.5387H89.691H89.2004V19.5066L91.8029 22.3651H79.9848L82.8433 19.6132V8.11501L79.9634 4.89381H90.1177ZM89.2217 13.7255H89.3497C92.0376 13.7255 92.8909 12.1256 92.8909 10.0776C92.8909 8.24301 91.9096 6.34442 89.2217 6.53641V13.7255Z" fill="#404040"/>
<path d="M159.982 20.9149C159.662 20.6589 158.169 19.6776 157.443 19.0377C157.166 18.7817 157.358 18.5043 157.059 18.1844C156.654 17.8004 156.227 17.3737 155.779 16.9257C155.331 16.4564 154.905 15.9445 154.478 15.4111C154.094 14.8778 152.921 13.2566 151.961 12.1899C150.937 11.038 148.996 9.63001 148.462 8.32873C148.441 8.2434 148.398 8.15807 148.377 8.07274C148.249 7.66742 148.206 7.19811 148.228 6.64346C148.249 6.11015 148.398 5.59817 148.974 4.70221C149.614 3.74225 149.486 3.3156 149.273 3.27294C149.06 3.23027 148.825 3.2516 149.06 2.24898C149.273 1.37435 149.124 1.0117 148.996 0.798372C148.868 0.585048 148.718 0.478386 148.59 0.521051C148.313 0.585048 148.1 1.22502 147.844 1.39568C147.78 1.43835 147.417 1.63034 147.502 0.819705C147.524 0.627713 147.396 0.563716 147.204 0.670378C146.926 0.841037 146.542 1.28902 146.329 2.12098C146.308 2.16365 146.265 2.18498 146.244 2.12098C146.201 2.01432 146.201 1.82233 146.265 1.50234C146.329 1.20369 146.457 0.9477 146.329 0.926367C146.158 0.883702 145.902 1.24635 145.71 1.673C145.689 1.737 145.668 1.75833 145.646 1.801C145.625 1.84366 145.561 1.88633 145.561 1.77966C145.561 1.71567 145.582 1.58767 145.625 1.43835C145.646 1.37435 145.604 1.35302 145.582 1.35302C145.518 1.33168 145.454 1.37435 145.369 1.43835C145.177 1.58767 144.985 1.84366 144.836 2.20631C144.814 2.24898 144.814 2.29164 144.793 2.33431V2.35564C144.793 2.37697 144.793 2.37697 144.772 2.39831C144.772 2.41964 144.75 2.44097 144.75 2.4623C144.75 2.48364 144.729 2.5263 144.729 2.54763V2.56896C144.708 2.61163 144.708 2.67563 144.686 2.73962C144.665 2.80362 144.665 2.86762 144.665 2.93162C144.665 2.93162 144.665 2.93162 144.665 2.95295C144.644 3.12361 144.644 3.27294 144.644 3.4436C144.644 3.46493 144.644 3.48626 144.644 3.52893C144.644 3.61426 144.43 3.63559 144.494 3.82758C144.601 4.31823 144.793 4.80887 144.878 5.06486C144.921 5.15019 144.857 5.25685 144.772 5.29952C144.324 5.42751 143.086 5.8115 142.233 6.34481C142.191 6.36614 142.148 6.45147 142.191 6.51547C142.233 6.57947 142.34 6.57947 142.383 6.55813C143.364 6.23815 144.772 5.76883 145.454 6.25948C145.945 6.62213 146.009 7.47543 145.689 8.39272C145.582 8.73404 145.476 9.0327 145.369 9.35269C143.918 13.1499 146.585 14.9205 149.017 17.1817C149.188 17.3524 149.572 17.7577 149.892 18.2484C150.126 18.5897 150.382 18.995 150.34 19.379C150.318 19.699 150.276 20.0829 150.148 20.5949C150.02 21.2136 149.87 20.9149 148.889 20.6589C148.59 20.5736 148.569 20.6163 148.377 21.0216C148.185 21.4482 148.164 21.4909 148.206 21.5336C148.249 21.5549 150.062 21.5549 150.276 21.5762C150.297 21.5762 150.34 21.5976 150.361 21.5976C150.574 21.7042 151.577 22.1735 151.875 22.3869C151.939 22.4295 152.046 22.4082 152.089 22.3655C152.131 22.3015 152.11 22.2162 152.046 22.1735C151.598 21.8962 150.681 21.2136 150.66 21.0002C150.66 20.9149 150.724 20.6163 150.766 20.3816C150.937 19.315 150.958 18.931 151.385 18.7177C151.79 18.5257 152.729 19.0163 153.454 19.187C153.497 19.187 153.518 19.2297 153.497 19.251C153.475 19.3576 153.411 19.6136 153.283 20.019C153.262 20.0829 153.219 20.2109 153.091 20.2536C152.942 20.2963 152.323 20.0616 151.897 19.9763C151.726 19.9336 151.662 19.827 151.278 20.6589C151.257 20.7229 151.257 20.7443 151.278 20.7443C151.299 20.7656 153.027 20.8509 153.283 20.8936C153.326 20.8936 153.369 20.9149 153.411 20.9362C154.051 21.2562 154.585 21.5336 154.926 21.7255C155.118 21.8322 155.182 21.8749 155.246 21.8109C155.331 21.7255 155.246 21.6402 155.182 21.5762C155.139 21.5336 154.755 21.2562 154.371 21.0002C154.009 20.7443 153.667 20.5736 153.667 20.4456C153.667 20.3816 153.71 20.1683 153.731 20.1043C153.753 20.0616 153.881 19.571 153.923 19.4003C153.923 19.3576 153.966 19.3363 154.009 19.3576C155.865 19.9763 156.441 21.1709 157.849 21.9175C159.555 22.7922 161.432 22.0455 159.982 20.9149Z" fill="#404040"/>
</svg>
