<svg class="text-neutral" width="179" height="20" viewBox="0 0 179 20" fill="none" xmlns="http://www.w3.org/2000/svg">
<path d="M6.28453 0.44806C7.79653 0.352061 9.42853 0.928061 10.4845 1.57606C10.8205 1.76806 11.3485 2.05606 11.3725 2.46406C11.4205 2.92006 10.9885 3.30406 10.7485 3.64006C10.5805 3.90406 10.3165 4.55206 9.90853 4.60006C9.50053 4.64806 9.21253 4.12006 8.78053 3.85606C8.37253 3.61606 7.62853 3.37606 6.86053 3.47206C6.04453 3.59206 5.49253 4.04806 5.20453 4.62406C5.06053 4.93606 4.96453 5.53606 5.10853 5.96806C5.46853 7.00006 6.69253 7.40806 7.67653 7.84006C9.78853 8.75206 11.7085 9.68806 12.0925 12.2801C12.5005 15.1121 11.3485 17.4401 9.64453 18.5441C8.70853 19.1681 7.60453 19.5041 6.18853 19.5041C4.12453 19.5041 2.70853 18.5441 1.65253 17.3921C1.38853 17.1041 0.788529 16.4801 0.812529 16.0241C0.836529 15.5681 1.36453 15.2081 1.67653 14.8961C1.82053 14.7521 2.01253 14.6081 2.20453 14.4161C2.34853 14.2961 2.51653 14.0081 2.80453 14.0321C3.09253 14.0561 3.28453 14.4641 3.42853 14.7041C3.90853 15.4241 4.70053 16.1201 5.66053 16.2881C7.29253 16.6001 8.34853 15.4241 8.46853 14.0801C8.63653 12.1121 7.14853 11.5361 5.82853 11.0081C3.83653 10.2161 1.84453 9.28006 1.41253 6.85606C1.10053 5.03206 1.70053 3.42406 2.49253 2.41606C2.90053 1.91206 3.35653 1.48006 4.02853 1.09606C4.65253 0.73606 5.37253 0.49606 6.28453 0.44806ZM14.4773 0.95206C14.7893 0.928061 15.4133 0.928061 15.9653 0.928061C16.4453 0.928061 17.1653 0.88006 17.3573 1.12006C17.5733 1.43206 17.4773 2.29606 17.4773 2.80006V11.8241C17.4773 13.5281 17.3333 15.4961 18.6533 15.9281C19.6133 16.2401 20.4533 15.8321 20.7413 15.2081C21.1253 14.4641 21.0053 12.9521 21.0053 11.8241V2.72806C21.0053 2.17606 20.9093 1.36006 21.1733 1.09606C21.4373 0.83206 22.2533 0.928061 22.8053 0.928061C23.3813 0.928061 24.1733 0.83206 24.4373 1.09606C24.6533 1.33606 24.6053 2.03206 24.6053 2.44006V12.7841C24.6053 14.9921 24.6053 16.5281 23.6213 17.7281C22.7333 18.7841 21.2213 19.2881 19.2773 19.2881C16.3013 19.2881 14.5013 18.1121 14.0453 15.6401C13.8773 14.8481 13.9013 13.9361 13.9013 12.8561V2.48806C13.9013 1.72006 13.7573 1.04806 14.4773 0.95206ZM27.676 0.928061C28.588 0.808061 29.74 0.904061 30.748 0.904061C31.78 0.904061 32.788 0.904061 33.628 1.04806C36.148 1.50406 37.684 3.04006 37.9 5.89606C38.068 8.27206 36.988 10.1441 35.452 10.9601C35.164 11.1041 34.588 11.2721 34.54 11.5601C34.468 11.8961 34.852 12.2801 35.02 12.5441C36.196 14.3441 37.3 15.9521 38.548 17.8001C38.716 18.0641 39.052 18.4721 38.98 18.7601C38.86 19.1681 37.78 19.0241 37.18 19.0241C36.388 19.0241 35.548 19.0721 35.188 18.9281C34.732 18.7361 34.3 17.8481 34.036 17.3681L31.492 13.1441C31.348 12.9281 31.084 12.4001 30.844 12.4481C30.532 12.5201 30.628 13.5041 30.628 13.9361V17.3441C30.628 17.8961 30.676 18.6161 30.46 18.8561C30.172 19.1441 29.428 19.0241 28.852 19.0241C28.252 19.0241 27.484 19.0961 27.244 18.8561C26.98 18.5921 27.076 17.3441 27.076 16.7681V10.0001V2.10406C27.076 1.31206 27.076 1.00006 27.676 0.928061ZM30.628 5.24806V6.59206C30.628 7.24006 30.46 8.80006 30.82 9.08806C31.132 9.35206 31.804 9.18406 32.236 9.11206C32.692 9.01606 33.124 8.87206 33.436 8.65606C34.468 7.91206 34.708 5.58406 33.748 4.57606C33.292 4.12006 32.14 3.71206 31.228 3.83206C30.508 3.92806 30.628 4.52806 30.628 5.24806ZM41.0108 1.00006C41.9468 0.88006 43.1708 0.97606 44.3468 0.97606H46.0028C46.5308 0.97606 47.2748 0.904061 47.4908 1.12006C47.7308 1.36006 47.6588 2.03206 47.6588 2.65606C47.6588 3.20806 47.7548 3.90406 47.4908 4.16806C47.2508 4.40806 46.2908 4.31206 45.8588 4.31206C45.3548 4.31206 44.3708 4.21606 44.1548 4.50406C43.8668 4.88806 44.0348 5.68006 44.0348 6.25606C44.0348 6.85606 43.9148 7.69606 44.1548 7.98406C44.4188 8.27206 45.2588 8.17606 45.6668 8.17606C46.0748 8.17606 46.8908 8.08006 47.1548 8.36806C47.3708 8.60806 47.2988 9.42406 47.2988 9.90406C47.2988 10.4801 47.3468 11.1761 47.1068 11.3921C46.8428 11.6321 46.1228 11.5361 45.6668 11.5361C45.1868 11.5361 44.3708 11.4401 44.1548 11.7041C43.9388 12.0161 44.0348 12.7841 44.0348 13.4561V17.2241C44.0348 17.8721 44.0828 18.6881 43.8428 18.9041C43.5548 19.1441 42.8588 19.0481 42.2588 19.0481C41.6828 19.0481 40.8428 19.1201 40.6028 18.8801C40.3148 18.5921 40.4348 17.4881 40.4348 16.7681V10.0481V2.17606C40.4348 1.45606 40.3868 1.07206 41.0108 1.00006ZM60.7537 0.928061C61.2097 0.85606 63.2737 0.78406 63.5617 1.09606C63.7777 1.33606 63.7057 2.17606 63.7057 2.75206V11.7281C63.7057 12.9761 63.7297 14.1521 63.5617 15.1601C63.2017 17.1521 62.0977 18.5441 60.3937 19.1681C59.6257 19.4561 58.3777 19.6001 57.3217 19.2641C56.8657 19.1201 56.5057 18.9521 56.0977 18.6881C55.8337 18.5201 55.2577 18.1841 55.2337 17.7761C55.2097 17.4641 55.4497 17.2721 55.6177 17.1041C55.9537 16.7201 56.2177 16.3601 56.5777 15.9521C56.7217 15.7841 56.9617 15.5201 57.2017 15.5201C57.4657 15.5201 57.7057 15.8321 57.8257 15.9281C58.1137 16.1921 58.3777 16.3361 58.8337 16.2881C59.9137 16.1441 60.1297 14.7281 60.1537 13.4561C60.1777 9.92806 60.1537 6.64006 60.1537 3.06406C60.1537 2.22406 59.9377 0.95206 60.7057 0.928061H60.7537ZM66.6258 0.95206C66.9378 0.928061 67.5618 0.928061 68.1138 0.928061C68.5938 0.928061 69.3138 0.88006 69.5058 1.12006C69.7218 1.43206 69.6258 2.29606 69.6258 2.80006V11.8241C69.6258 13.5281 69.4818 15.4961 70.8018 15.9281C71.7618 16.2401 72.6018 15.8321 72.8898 15.2081C73.2738 14.4641 73.1538 12.9521 73.1538 11.8241V2.72806C73.1538 2.17606 73.0578 1.36006 73.3218 1.09606C73.5858 0.83206 74.4018 0.928061 74.9538 0.928061C75.5298 0.928061 76.3218 0.83206 76.5858 1.09606C76.8018 1.33606 76.7538 2.03206 76.7538 2.44006V12.7841C76.7538 14.9921 76.7538 16.5281 75.7698 17.7281C74.8818 18.7841 73.3698 19.2881 71.4258 19.2881C68.4498 19.2881 66.6498 18.1121 66.1938 15.6401C66.0258 14.8481 66.0498 13.9361 66.0498 12.8561V2.48806C66.0498 1.72006 65.9058 1.04806 66.6258 0.95206ZM86.6885 10.2161C86.8805 9.95206 86.8325 9.56806 86.8325 9.18406V3.30406C86.8325 2.68006 86.6885 1.45606 86.9765 1.12006C87.2165 0.85606 88.0565 0.928061 88.6085 0.928061C89.1365 0.928061 90.0005 0.83206 90.2645 1.09606C90.5525 1.38406 90.4325 2.58406 90.4325 3.20806V16.7681C90.4325 17.4161 90.5525 18.5681 90.2645 18.8561C90.0005 19.1201 89.3285 19.0001 88.7765 19.0001C88.2245 19.0001 87.5765 19.0961 87.2165 18.9281C86.9045 18.8081 86.7365 18.3041 86.5685 17.8721C85.5845 15.3761 84.6245 12.9761 83.5685 10.5041C83.4245 10.1201 83.3045 9.64006 82.9205 9.42406C82.7045 9.68806 82.7765 10.1201 82.7765 10.5041V17.7761C82.7765 18.1841 82.8245 18.7121 82.6085 18.8801C82.2965 19.0961 81.5765 19.0001 80.9765 19.0001C80.4005 19.0001 79.6085 19.0961 79.3445 18.8561C79.0805 18.5681 79.2005 17.4161 79.2005 16.7441V3.28006C79.2005 2.63206 79.0565 1.48006 79.3205 1.14406C79.5845 0.78406 80.5445 0.928061 81.1925 0.928061C81.6485 0.928061 82.2245 0.88006 82.5125 1.02406C82.8005 1.19206 82.9445 1.69606 83.1125 2.10406C84.0725 4.50406 85.0325 6.83206 86.0165 9.20806C86.1845 9.59206 86.3285 10.0481 86.6885 10.2161ZM93.5823 0.928061C93.8463 0.904061 94.4703 0.904061 95.0463 0.904061C95.5263 0.904061 96.1983 0.83206 96.3903 1.09606C96.5823 1.36006 96.5343 2.08006 96.5343 2.75206V6.35206C96.5343 6.85606 96.4383 7.84006 96.7503 7.91206C97.0143 7.98406 97.3743 7.40806 97.5663 7.16806C98.9343 5.34406 100.182 3.61606 101.526 1.76806C101.766 1.43206 101.982 1.07206 102.318 0.97606C102.774 0.85606 103.662 0.904061 104.31 0.904061C104.91 0.904061 106.014 0.78406 106.11 1.14406C106.206 1.52806 105.558 2.05606 105.414 2.24806C103.686 4.31206 102.222 6.16006 100.542 8.17606C100.278 8.46406 99.8463 8.92006 99.8463 9.25606C99.8223 9.68806 100.374 10.2161 100.614 10.5281C102.486 13.0721 104.334 15.4961 106.23 18.0881C106.374 18.3041 106.566 18.5201 106.518 18.7601C106.398 19.1681 105.294 19.0241 104.622 19.0241C103.854 19.0241 102.99 19.1201 102.486 18.9281C102.15 18.8081 101.91 18.4241 101.67 18.0881C100.278 16.1681 98.9823 14.2721 97.5903 12.3281C97.3743 12.0401 97.0143 11.4641 96.7743 11.5121C96.4383 11.5601 96.5343 12.7121 96.5343 13.2161V17.1041C96.5343 17.6801 96.6303 18.5921 96.3663 18.8561C96.0543 19.1441 95.3823 19.0241 94.7583 19.0241C94.2063 19.0241 93.4143 19.1201 93.1503 18.8561C92.8863 18.5921 92.9823 17.4401 92.9823 16.7681V3.23206C92.9823 2.60806 92.8623 1.43206 93.1023 1.12006C93.2223 0.95206 93.4623 0.95206 93.5823 0.928061ZM108.417 1.00006C108.657 0.95206 109.353 0.97606 109.929 0.97606C110.409 0.97606 111.033 0.904061 111.273 1.12006C111.537 1.40806 111.417 2.58406 111.417 3.23206V10.0001V16.7441C111.417 17.3921 111.537 18.5681 111.297 18.8561C111.009 19.1681 110.313 19.0481 109.665 19.0481C109.113 19.0481 108.249 19.1201 108.009 18.8801C107.745 18.6161 107.841 17.4161 107.841 16.7681V5.51206V2.12806C107.841 1.45606 107.817 1.07206 108.417 1.00006ZM114.534 1.00006C115.254 0.904061 116.718 0.97606 117.846 0.97606H119.502C120.03 0.97606 120.774 0.904061 120.99 1.12006C121.23 1.38406 121.134 2.12806 121.134 2.65606C121.134 3.13606 121.23 3.90406 120.99 4.16806C120.726 4.43206 119.934 4.31206 119.358 4.31206C118.806 4.31206 117.894 4.24006 117.678 4.50406C117.414 4.86406 117.534 5.58406 117.534 6.30406C117.534 6.85606 117.438 7.81606 117.702 8.08006C118.11 8.48806 120.174 7.96006 120.582 8.41606C120.822 8.70406 120.726 9.56806 120.726 9.95206C120.726 10.4321 120.798 11.2001 120.558 11.4401C120.126 11.8721 118.206 11.3201 117.726 11.7281C117.39 12.0161 117.534 13.0721 117.534 13.6001C117.534 14.1041 117.414 15.3041 117.75 15.5441C118.302 15.9041 120.606 15.3281 121.062 15.8321C121.302 16.1201 121.182 16.8881 121.182 17.3921C121.182 17.8961 121.278 18.6401 121.038 18.8801C120.798 19.1201 119.91 19.0481 119.382 19.0481H115.782C115.278 19.0481 114.366 19.0961 114.126 18.9041C113.838 18.6401 113.934 17.4881 113.934 16.8161V10.0481V3.30406C113.934 2.72806 113.814 1.48006 114.054 1.16806C114.174 1.02406 114.366 1.00006 114.534 1.00006ZM137.878 0.44806C138.67 0.40006 139.606 0.472061 140.446 0.688061C141.07 0.85606 142.078 1.09606 142.318 1.62406C142.51 2.03206 142.414 2.89606 142.414 3.49606C142.414 3.90406 142.534 5.12806 142.198 5.22406C141.958 5.29606 141.67 4.98406 141.502 4.86406C140.878 4.40806 140.182 4.07206 139.342 3.90406C138.022 3.66406 136.822 3.97606 135.958 4.48006C134.302 5.44006 133.174 7.28806 133.102 9.95206C133.054 11.3201 133.414 12.3521 133.942 13.2881C134.446 14.2001 135.094 14.9441 135.934 15.4481C136.798 15.9521 138.118 16.2641 139.366 16.0001C140.182 15.8321 140.878 15.4721 141.502 15.0161C141.694 14.8721 141.958 14.6081 142.198 14.6801C142.534 14.7761 142.414 15.9761 142.414 16.4321C142.414 17.1521 142.486 17.9201 142.294 18.2801C142.03 18.7601 141.094 18.9761 140.542 19.1441C139.894 19.3361 139.078 19.5041 138.31 19.5041C136.63 19.5041 135.31 19.0481 134.182 18.4481C132.022 17.2961 130.414 15.1601 129.742 12.4961C128.95 9.35206 129.862 6.16006 131.23 4.21606C132.286 2.70406 133.63 1.52806 135.646 0.85606C136.342 0.61606 137.086 0.49606 137.878 0.44806ZM145.284 1.00006C145.5 0.95206 146.22 0.97606 146.796 0.97606C147.276 0.97606 147.9 0.904061 148.116 1.12006C148.356 1.36006 148.284 2.17606 148.284 2.80006V13.7441C148.284 14.4161 148.212 15.2561 148.452 15.4961C148.692 15.7361 149.34 15.6641 150.156 15.6641C150.78 15.6641 151.572 15.5441 151.86 15.8081C152.1 16.0721 152.028 16.7921 152.028 17.3921C152.028 18.0161 152.1 18.6641 151.836 18.9041C151.548 19.1441 150.684 19.0481 150.156 19.0481H146.508C145.956 19.0481 145.02 19.1201 144.804 18.8321C144.588 18.4961 144.684 17.3441 144.684 16.6961V3.28006C144.684 2.39206 144.468 1.00006 145.236 1.00006H145.284ZM154.141 0.95206C154.453 0.928061 155.077 0.928061 155.629 0.928061C156.109 0.928061 156.829 0.88006 157.021 1.12006C157.237 1.43206 157.141 2.29606 157.141 2.80006V11.8241C157.141 13.5281 156.997 15.4961 158.317 15.9281C159.277 16.2401 160.117 15.8321 160.405 15.2081C160.789 14.4641 160.669 12.9521 160.669 11.8241V2.72806C160.669 2.17606 160.573 1.36006 160.837 1.09606C161.101 0.83206 161.917 0.928061 162.469 0.928061C163.045 0.928061 163.837 0.83206 164.101 1.09606C164.317 1.33606 164.269 2.03206 164.269 2.44006V12.7841C164.269 14.9921 164.269 16.5281 163.285 17.7281C162.397 18.7841 160.885 19.2881 158.941 19.2881C155.965 19.2881 154.165 18.1121 153.709 15.6401C153.541 14.8481 153.565 13.9361 153.565 12.8561V2.48806C153.565 1.72006 153.421 1.04806 154.141 0.95206ZM167.34 0.928061C167.916 0.85606 168.78 0.904061 169.5 0.904061C170.22 0.904061 170.964 0.88006 171.612 0.904061C174.348 1.02406 176.052 2.10406 176.46 4.50406C176.724 5.92006 176.484 7.60006 175.74 8.63206C175.644 8.77606 175.452 8.96806 175.452 9.18406C175.476 9.52006 176.052 9.68806 176.292 9.85606C177.66 10.7921 178.476 13.0241 177.924 15.3281C177.372 17.7041 175.5 18.8321 172.668 19.0001C171.372 19.0721 169.74 19.0241 168.228 19.0241C167.748 19.0241 167.124 19.0721 166.908 18.8561C166.644 18.5921 166.74 17.4401 166.74 16.7681V5.48806V2.10406C166.74 1.33606 166.764 1.00006 167.34 0.928061ZM170.292 5.94406C170.292 6.59206 170.148 8.00806 170.484 8.29606C170.916 8.65606 172.092 8.27206 172.38 8.10406C173.268 7.60006 173.58 5.82406 172.956 4.72006C172.644 4.14406 171.732 3.61606 170.748 3.80806C170.1 3.95206 170.292 5.05606 170.292 5.94406ZM170.292 12.4721V13.6961C170.292 14.3201 170.172 15.6881 170.46 16.0001C170.772 16.3121 171.588 16.1681 172.092 16.1201C172.644 16.0721 173.196 15.9281 173.532 15.7121C174.66 15.0401 174.876 12.8321 173.94 11.8961C173.46 11.4161 172.164 10.9841 170.868 11.1761C170.22 11.2721 170.292 11.8241 170.292 12.4721Z" fill="#404040"/>
</svg>
